<svg width="160" height="160" xmlns="http://www.w3.org/2000/svg" xml:space="preserve"><path fill="#EBFFFE" d="M20 1h120c10.8 0 19.5 8.7 19.5 19.5v120c0 10.8-8.7 19.5-19.5 19.5H20C9.2 160 .5 151.3.5 140.5v-120C.5 9.7 9.2 1 20 1z"/><linearGradient id="a" gradientUnits="userSpaceOnUse" x1="-1574.825" y1="94.58" x2="-1574.825" y2="103.47" gradientTransform="matrix(10 0 0 10 15822 -918)"><stop offset="0" style="stop-color:#120120"/><stop offset=".416" style="stop-color:#4c2b8b"/><stop offset="1" style="stop-color:#6c49c4"/></linearGradient><path fill="url(#a)" d="M103.4 50.4H61.3c-2.6 0-4.7-2.1-4.7-4.7s2.1-4.7 4.7-4.7h49.5l10.4-13.2H29.7c-1.9 0-3.4 1.5-3.4 3.4v82.2c0 1.9 1.5 3.4 3.4 3.4h21.8l51.9-66.2v-.2zm-58.9 0c-2.6 0-4.7-2.1-4.7-4.7s2.1-4.7 4.7-4.7 4.7 2.1 4.7 4.7-2.1 4.7-4.7 4.7z"/><linearGradient id="b" gradientUnits="userSpaceOnUse" x1="48.5" y1="74.25" x2="133.7" y2="74.25" gradientTransform="matrix(1 0 0 -1 0 162)"><stop offset="0" style="stop-color:#9ff"/><stop offset=".299" style="stop-color:#95eefb"/><stop offset=".439" style="stop-color:#91ddf7"/><stop offset=".634" style="stop-color:#87b5ed"/><stop offset=".796" style="stop-color:#7b85e1"/><stop offset="1" style="stop-color:#63c"/></linearGradient><path fill="url(#b)" d="M130.3 43.3h-12.1L110 53.8h11.6c3.1 0 5.5 2.5 5.5 5.5s-2.5 5.5-5.5 5.5h-20.3l-52.8 67.4h81.8c1.9 0 3.4-1.5 3.4-3.4V46.7c0-1.9-1.5-3.4-3.4-3.4z"/></svg>